<svg xmlns="http://www.w3.org/2000/svg" width="429" height="230" viewBox="0 0 429 230"><title>Ratmen banner</title>
<rect x="2" y="2" width="425" height="226" rx="26" fill="#fbf6ea" stroke="#6f6862" stroke-width="4"/>
<path d="M2 28 Q2 2 28 2 H262 L246 56 H2 Z" fill="#6f6862"/>
<text x="124" y="30" font-family="'DejaVu Sans', Verdana, Arial, sans-serif" font-size="30" font-weight="bold" text-anchor="middle" dominant-baseline="central" fill="#ffffff" letter-spacing="1">RATMEN</text>
<g transform="translate(126 110) scale(1.25)"><g transform="translate(-48 -16) scale(1)"><g transform="translate(-14 -14) scale(0.318182)"><rect x="3" y="3" width="82" height="82" rx="12" fill="#d3cfca"/><clipPath id="c1"><rect x="3" y="3" width="82" height="82" rx="12"/></clipPath><g clip-path="url(#c1)"><path d="M8 104 Q10 68 44 66 Q78 68 80 104 Z" fill="#6b5a4a"/><circle cx="27" cy="26" r="10" fill="#8a7563"/><circle cx="61" cy="26" r="10" fill="#8a7563"/><circle cx="27" cy="26" r="6" fill="#e8a0a8"/><circle cx="61" cy="26" r="6" fill="#e8a0a8"/><path d="M26 38 Q26 20 44 20 Q62 20 62 38 Q62 52 52 62 Q48 72 44 72 Q40 72 36 62 Q26 52 26 38 Z" fill="#8a7563"/><ellipse cx="44" cy="60" rx="8" ry="8" fill="#a8927f"/><circle cx="37" cy="40" r="2.6" fill="#1a1a1a"/><circle cx="51" cy="40" r="2.6" fill="#1a1a1a"/><circle cx="38" cy="39" r="0.9" fill="#ffffff"/><circle cx="52" cy="39" r="0.9" fill="#ffffff"/><path d="M38 62 L24 58 M38 64 L24 66 M50 62 L64 58 M50 64 L64 66" stroke="#3a3a3a" stroke-width="0.9"/><circle cx="44" cy="66" r="2.8" fill="#e57f8f"/><rect x="41.6" y="69" width="2.3" height="4.5" fill="#ffffff"/><rect x="44.1" y="69" width="2.3" height="4.5" fill="#ffffff"/></g><rect x="3" y="3" width="82" height="82" rx="12" fill="none" stroke="#6f6862" stroke-width="4"/></g></g><g transform="translate(-16 -16) scale(1)"><g transform="translate(-14 -14) scale(0.318182)"><rect x="3" y="3" width="82" height="82" rx="12" fill="#d3cfca"/><clipPath id="c2"><rect x="3" y="3" width="82" height="82" rx="12"/></clipPath><g clip-path="url(#c2)"><path d="M8 104 Q10 68 44 66 Q78 68 80 104 Z" fill="#6b5a4a"/><circle cx="27" cy="26" r="10" fill="#8a7563"/><circle cx="61" cy="26" r="10" fill="#8a7563"/><circle cx="27" cy="26" r="6" fill="#e8a0a8"/><circle cx="61" cy="26" r="6" fill="#e8a0a8"/><path d="M26 38 Q26 20 44 20 Q62 20 62 38 Q62 52 52 62 Q48 72 44 72 Q40 72 36 62 Q26 52 26 38 Z" fill="#8a7563"/><ellipse cx="44" cy="60" rx="8" ry="8" fill="#a8927f"/><circle cx="37" cy="40" r="2.6" fill="#1a1a1a"/><circle cx="51" cy="40" r="2.6" fill="#1a1a1a"/><circle cx="38" cy="39" r="0.9" fill="#ffffff"/><circle cx="52" cy="39" r="0.9" fill="#ffffff"/><path d="M38 62 L24 58 M38 64 L24 66 M50 62 L64 58 M50 64 L64 66" stroke="#3a3a3a" stroke-width="0.9"/><circle cx="44" cy="66" r="2.8" fill="#e57f8f"/><rect x="41.6" y="69" width="2.3" height="4.5" fill="#ffffff"/><rect x="44.1" y="69" width="2.3" height="4.5" fill="#ffffff"/></g><rect x="3" y="3" width="82" height="82" rx="12" fill="none" stroke="#6f6862" stroke-width="4"/></g></g><g transform="translate(16 -16) scale(1)"><g transform="translate(-14 -14) scale(0.318182)"><rect x="3" y="3" width="82" height="82" rx="12" fill="#d3cfca"/><clipPath id="c3"><rect x="3" y="3" width="82" height="82" rx="12"/></clipPath><g clip-path="url(#c3)"><path d="M8 104 Q10 68 44 66 Q78 68 80 104 Z" fill="#6b5a4a"/><circle cx="27" cy="26" r="10" fill="#8a7563"/><circle cx="61" cy="26" r="10" fill="#8a7563"/><circle cx="27" cy="26" r="6" fill="#e8a0a8"/><circle cx="61" cy="26" r="6" fill="#e8a0a8"/><path d="M26 38 Q26 20 44 20 Q62 20 62 38 Q62 52 52 62 Q48 72 44 72 Q40 72 36 62 Q26 52 26 38 Z" fill="#8a7563"/><ellipse cx="44" cy="60" rx="8" ry="8" fill="#a8927f"/><circle cx="37" cy="40" r="2.6" fill="#1a1a1a"/><circle cx="51" cy="40" r="2.6" fill="#1a1a1a"/><circle cx="38" cy="39" r="0.9" fill="#ffffff"/><circle cx="52" cy="39" r="0.9" fill="#ffffff"/><path d="M38 62 L24 58 M38 64 L24 66 M50 62 L64 58 M50 64 L64 66" stroke="#3a3a3a" stroke-width="0.9"/><circle cx="44" cy="66" r="2.8" fill="#e57f8f"/><rect x="41.6" y="69" width="2.3" height="4.5" fill="#ffffff"/><rect x="44.1" y="69" width="2.3" height="4.5" fill="#ffffff"/></g><rect x="3" y="3" width="82" height="82" rx="12" fill="none" stroke="#6f6862" stroke-width="4"/></g></g><g transform="translate(48 -16) scale(1)"><g transform="translate(-14 -14) scale(0.318182)"><rect x="3" y="3" width="82" height="82" rx="12" fill="#d3cfca"/><clipPath id="c4"><rect x="3" y="3" width="82" height="82" rx="12"/></clipPath><g clip-path="url(#c4)"><path d="M8 104 Q10 68 44 66 Q78 68 80 104 Z" fill="#6b5a4a"/><circle cx="27" cy="26" r="10" fill="#8a7563"/><circle cx="61" cy="26" r="10" fill="#8a7563"/><circle cx="27" cy="26" r="6" fill="#e8a0a8"/><circle cx="61" cy="26" r="6" fill="#e8a0a8"/><path d="M26 38 Q26 20 44 20 Q62 20 62 38 Q62 52 52 62 Q48 72 44 72 Q40 72 36 62 Q26 52 26 38 Z" fill="#8a7563"/><ellipse cx="44" cy="60" rx="8" ry="8" fill="#a8927f"/><circle cx="37" cy="40" r="2.6" fill="#1a1a1a"/><circle cx="51" cy="40" r="2.6" fill="#1a1a1a"/><circle cx="38" cy="39" r="0.9" fill="#ffffff"/><circle cx="52" cy="39" r="0.9" fill="#ffffff"/><path d="M38 62 L24 58 M38 64 L24 66 M50 62 L64 58 M50 64 L64 66" stroke="#3a3a3a" stroke-width="0.9"/><circle cx="44" cy="66" r="2.8" fill="#e57f8f"/><rect x="41.6" y="69" width="2.3" height="4.5" fill="#ffffff"/><rect x="44.1" y="69" width="2.3" height="4.5" fill="#ffffff"/></g><rect x="3" y="3" width="82" height="82" rx="12" fill="none" stroke="#6f6862" stroke-width="4"/></g></g><g transform="translate(-48 16) scale(1)"><g transform="translate(-14 -14) scale(0.318182)"><rect x="3" y="3" width="82" height="82" rx="12" fill="#d3cfca"/><clipPath id="c5"><rect x="3" y="3" width="82" height="82" rx="12"/></clipPath><g clip-path="url(#c5)"><path d="M8 104 Q10 68 44 66 Q78 68 80 104 Z" fill="#6b5a4a"/><circle cx="27" cy="26" r="10" fill="#8a7563"/><circle cx="61" cy="26" r="10" fill="#8a7563"/><circle cx="27" cy="26" r="6" fill="#e8a0a8"/><circle cx="61" cy="26" r="6" fill="#e8a0a8"/><path d="M26 38 Q26 20 44 20 Q62 20 62 38 Q62 52 52 62 Q48 72 44 72 Q40 72 36 62 Q26 52 26 38 Z" fill="#8a7563"/><ellipse cx="44" cy="60" rx="8" ry="8" fill="#a8927f"/><circle cx="37" cy="40" r="2.6" fill="#1a1a1a"/><circle cx="51" cy="40" r="2.6" fill="#1a1a1a"/><circle cx="38" cy="39" r="0.9" fill="#ffffff"/><circle cx="52" cy="39" r="0.9" fill="#ffffff"/><path d="M38 62 L24 58 M38 64 L24 66 M50 62 L64 58 M50 64 L64 66" stroke="#3a3a3a" stroke-width="0.9"/><circle cx="44" cy="66" r="2.8" fill="#e57f8f"/><rect x="41.6" y="69" width="2.3" height="4.5" fill="#ffffff"/><rect x="44.1" y="69" width="2.3" height="4.5" fill="#ffffff"/></g><rect x="3" y="3" width="82" height="82" rx="12" fill="none" stroke="#6f6862" stroke-width="4"/></g></g><g transform="translate(-16 16) scale(1)"><g transform="translate(-14 -14) scale(0.318182)"><rect x="3" y="3" width="82" height="82" rx="12" fill="#d3cfca"/><clipPath id="c6"><rect x="3" y="3" width="82" height="82" rx="12"/></clipPath><g clip-path="url(#c6)"><path d="M8 104 Q10 68 44 66 Q78 68 80 104 Z" fill="#6b5a4a"/><circle cx="27" cy="26" r="10" fill="#8a7563"/><circle cx="61" cy="26" r="10" fill="#8a7563"/><circle cx="27" cy="26" r="6" fill="#e8a0a8"/><circle cx="61" cy="26" r="6" fill="#e8a0a8"/><path d="M26 38 Q26 20 44 20 Q62 20 62 38 Q62 52 52 62 Q48 72 44 72 Q40 72 36 62 Q26 52 26 38 Z" fill="#8a7563"/><ellipse cx="44" cy="60" rx="8" ry="8" fill="#a8927f"/><circle cx="37" cy="40" r="2.6" fill="#1a1a1a"/><circle cx="51" cy="40" r="2.6" fill="#1a1a1a"/><circle cx="38" cy="39" r="0.9" fill="#ffffff"/><circle cx="52" cy="39" r="0.9" fill="#ffffff"/><path d="M38 62 L24 58 M38 64 L24 66 M50 62 L64 58 M50 64 L64 66" stroke="#3a3a3a" stroke-width="0.9"/><circle cx="44" cy="66" r="2.8" fill="#e57f8f"/><rect x="41.6" y="69" width="2.3" height="4.5" fill="#ffffff"/><rect x="44.1" y="69" width="2.3" height="4.5" fill="#ffffff"/></g><rect x="3" y="3" width="82" height="82" rx="12" fill="none" stroke="#6f6862" stroke-width="4"/></g></g><g transform="translate(16 16) scale(1)"><g transform="translate(-14 -14) scale(0.318182)"><rect x="3" y="3" width="82" height="82" rx="12" fill="#d3cfca"/><clipPath id="c7"><rect x="3" y="3" width="82" height="82" rx="12"/></clipPath><g clip-path="url(#c7)"><path d="M8 104 Q10 68 44 66 Q78 68 80 104 Z" fill="#6b5a4a"/><circle cx="27" cy="26" r="10" fill="#8a7563"/><circle cx="61" cy="26" r="10" fill="#8a7563"/><circle cx="27" cy="26" r="6" fill="#e8a0a8"/><circle cx="61" cy="26" r="6" fill="#e8a0a8"/><path d="M26 38 Q26 20 44 20 Q62 20 62 38 Q62 52 52 62 Q48 72 44 72 Q40 72 36 62 Q26 52 26 38 Z" fill="#8a7563"/><ellipse cx="44" cy="60" rx="8" ry="8" fill="#a8927f"/><circle cx="37" cy="40" r="2.6" fill="#1a1a1a"/><circle cx="51" cy="40" r="2.6" fill="#1a1a1a"/><circle cx="38" cy="39" r="0.9" fill="#ffffff"/><circle cx="52" cy="39" r="0.9" fill="#ffffff"/><path d="M38 62 L24 58 M38 64 L24 66 M50 62 L64 58 M50 64 L64 66" stroke="#3a3a3a" stroke-width="0.9"/><circle cx="44" cy="66" r="2.8" fill="#e57f8f"/><rect x="41.6" y="69" width="2.3" height="4.5" fill="#ffffff"/><rect x="44.1" y="69" width="2.3" height="4.5" fill="#ffffff"/></g><rect x="3" y="3" width="82" height="82" rx="12" fill="none" stroke="#6f6862" stroke-width="4"/></g></g><g transform="translate(48 16) scale(1)"><g transform="translate(-14 -14) scale(0.318182)"><rect x="3" y="3" width="82" height="82" rx="12" fill="#d3cfca"/><clipPath id="c8"><rect x="3" y="3" width="82" height="82" rx="12"/></clipPath><g clip-path="url(#c8)"><path d="M8 104 Q10 68 44 66 Q78 68 80 104 Z" fill="#6b5a4a"/><circle cx="27" cy="26" r="10" fill="#8a7563"/><circle cx="61" cy="26" r="10" fill="#8a7563"/><circle cx="27" cy="26" r="6" fill="#e8a0a8"/><circle cx="61" cy="26" r="6" fill="#e8a0a8"/><path d="M26 38 Q26 20 44 20 Q62 20 62 38 Q62 52 52 62 Q48 72 44 72 Q40 72 36 62 Q26 52 26 38 Z" fill="#8a7563"/><ellipse cx="44" cy="60" rx="8" ry="8" fill="#a8927f"/><circle cx="37" cy="40" r="2.6" fill="#1a1a1a"/><circle cx="51" cy="40" r="2.6" fill="#1a1a1a"/><circle cx="38" cy="39" r="0.9" fill="#ffffff"/><circle cx="52" cy="39" r="0.9" fill="#ffffff"/><path d="M38 62 L24 58 M38 64 L24 66 M50 62 L64 58 M50 64 L64 66" stroke="#3a3a3a" stroke-width="0.9"/><circle cx="44" cy="66" r="2.8" fill="#e57f8f"/><rect x="41.6" y="69" width="2.3" height="4.5" fill="#ffffff"/><rect x="44.1" y="69" width="2.3" height="4.5" fill="#ffffff"/></g><rect x="3" y="3" width="82" height="82" rx="12" fill="none" stroke="#6f6862" stroke-width="4"/></g></g></g>
<text x="126" y="182" font-family="'DejaVu Sans', Verdana, Arial, sans-serif" font-size="17" font-weight="normal" text-anchor="middle" dominant-baseline="central" fill="#2b2b2b">no power:</text>
<text x="126" y="204" font-family="'DejaVu Sans', Verdana, Arial, sans-serif" font-size="17" font-weight="normal" text-anchor="middle" dominant-baseline="central" fill="#2b2b2b">strength in numbers</text>
<clipPath id="portrait"><circle cx="330" cy="113" r="93"/></clipPath>
<circle cx="330" cy="113" r="93" fill="#d3cfca"/>
<g clip-path="url(#portrait)"><g transform="translate(242 31) scale(2)"><path d="M8 104 Q10 68 44 66 Q78 68 80 104 Z" fill="#6b5a4a"/><circle cx="27" cy="26" r="10" fill="#8a7563"/><circle cx="61" cy="26" r="10" fill="#8a7563"/><circle cx="27" cy="26" r="6" fill="#e8a0a8"/><circle cx="61" cy="26" r="6" fill="#e8a0a8"/><path d="M26 38 Q26 20 44 20 Q62 20 62 38 Q62 52 52 62 Q48 72 44 72 Q40 72 36 62 Q26 52 26 38 Z" fill="#8a7563"/><ellipse cx="44" cy="60" rx="8" ry="8" fill="#a8927f"/><circle cx="37" cy="40" r="2.6" fill="#1a1a1a"/><circle cx="51" cy="40" r="2.6" fill="#1a1a1a"/><circle cx="38" cy="39" r="0.9" fill="#ffffff"/><circle cx="52" cy="39" r="0.9" fill="#ffffff"/><path d="M38 62 L24 58 M38 64 L24 66 M50 62 L64 58 M50 64 L64 66" stroke="#3a3a3a" stroke-width="0.9"/><circle cx="44" cy="66" r="2.8" fill="#e57f8f"/><rect x="41.6" y="69" width="2.3" height="4.5" fill="#ffffff"/><rect x="44.1" y="69" width="2.3" height="4.5" fill="#ffffff"/></g></g>
<circle cx="330" cy="113" r="93" fill="none" stroke="#6f6862" stroke-width="5"/>
<circle cx="388" cy="188" r="32" fill="#e8762c" stroke="#ffffff" stroke-width="4"/>
<text x="388" y="190" font-family="'DejaVu Sans', Verdana, Arial, sans-serif" font-size="40" font-weight="bold" text-anchor="middle" dominant-baseline="central" fill="#ffffff">8</text>
</svg>
