<svg xmlns="http://www.w3.org/2000/svg" width="597" height="297" viewBox="0 0 597 297"><title>Small World — 3 players</title>
<rect width="597" height="297" fill="#fbf7ec"/>
<path id="r1" d="M83 0 C81.7 2 77.2 8.3 75 12 C72.8 15.7 72.2 19 70 22 C67.8 25 63.3 28.7 62 30 C59.2 30.8 49 32.5 45 35 C41 37.5 39.2 40 38 45 C36.8 50 38.5 59.2 38 65 C37.5 70.8 35.2 75 35 80 C34.8 85 36.7 92.5 37 95 C35 96.7 29.5 102.2 25 105 C20.5 107.8 14.2 110.3 10 112 C5.8 113.7 1.7 114.5 0 115 L0 0 L83 0 Z" fill="#7cbde8"/>
<path id="r2" d="M83 0 C81.7 2 77.2 8.3 75 12 C72.8 15.7 72.2 19 70 22 C67.8 25 63.3 28.7 62 30 C64.2 31.3 71.2 35.5 75 38 C78.8 40.5 82.2 42.2 85 45 C87.8 47.8 89.5 52.2 92 55 C94.5 57.8 97 60 100 62 C103 64 108.3 66.2 110 67 C113.3 65.3 122.5 59.8 130 57 C137.5 54.2 145.8 51.7 155 50 C164.2 48.3 180 47.5 185 47 C184.2 45.8 181.8 43.7 180 40 C178.2 36.3 174.7 29.7 174 25 C173.3 20.3 174.7 16.2 176 12 C177.3 7.8 181 2 182 0 L83 0 Z" fill="#4f9a58"/>
<path id="r3" d="M182 0 C181 2 177.3 7.8 176 12 C174.7 16.2 173.3 20.3 174 25 C174.7 29.7 178.2 36.3 180 40 C181.8 43.7 184.2 45.8 185 47 C188.3 47.5 198.8 49.3 205 50 C211.2 50.7 217.5 50.7 222 51 C226.5 51.3 230.3 51.8 232 52 C234.2 51.2 240 49 245 47 C250 45 259.2 41.2 262 40 C263.3 38 268.7 32.2 270 28 C271.3 23.8 271 19.7 270 15 C269 10.3 265 2.5 264 0 L182 0 Z" fill="#bfc3cc"/>
<path id="r4" d="M264 0 C265 2.5 269 10.3 270 15 C271 19.7 271.3 23.8 270 28 C268.7 32.2 263.3 38 262 40 C264.2 41.3 270.7 45.5 275 48 C279.3 50.5 284.2 53.3 288 55 C291.8 56.7 296.3 57.5 298 58 C300 55.8 306 48.8 310 45 C314 41.2 317.8 37.8 322 35 C326.2 32.2 332.8 29.2 335 28 C335 25.8 334.5 19.7 335 15 C335.5 10.3 337.5 2.5 338 0 L264 0 Z" fill="#f2d36b"/>
<path id="r5" d="M338 0 C337.5 2.5 335.5 10.3 335 15 C334.5 19.7 335 25.8 335 28 C337.8 30.8 346.5 40 352 45 C357.5 50 365.3 55.8 368 58 C370.8 56.7 378 52 385 50 C392 48 402.5 47.7 410 46 C417.5 44.3 426.7 41 430 40 C430.8 35.8 432 21.7 435 15 C438 8.3 445.8 2.5 448 0 L338 0 Z" fill="#a99470"/>
<path id="r6" d="M448 0 C445.8 2.5 438 8.3 435 15 C432 21.7 430.8 35.8 430 40 C433.3 40.8 443.3 42.5 450 45 C456.7 47.5 462.5 52.5 470 55 C477.5 57.5 490.8 59.2 495 60 C499.2 59.2 513.3 57.5 520 55 C526.7 52.5 533.3 49.2 535 45 C536.7 40.8 529.5 35 530 30 C530.5 25 534.3 20 538 15 C541.7 10 549.7 2.5 552 0 L448 0 Z" fill="#4f9a58"/>
<path id="r7" d="M552 0 C549.7 2.5 541.7 10 538 15 C534.3 20 530.5 25 530 30 C529.5 35 536.7 40.8 535 45 C533.3 49.2 526.7 52.5 520 55 C513.3 57.5 499.2 59.2 495 60 C493.3 62.5 487.8 70 485 75 C482.2 80 479.2 84.8 478 90 C476.8 95.2 478 103.3 478 106 C481.7 105.7 492.7 103.3 500 104 C507.3 104.7 518.3 109 522 110 C525.8 108.7 537 104.7 545 102 C553 99.3 561.3 95.7 570 94 C578.7 92.3 592.5 92.3 597 92 L597 0 L552 0 Z" fill="#a99470"/>
<path id="r8" d="M62 30 C59.2 30.8 49 32.5 45 35 C41 37.5 39.2 40 38 45 C36.8 50 38.5 59.2 38 65 C37.5 70.8 35.2 75 35 80 C34.8 85 36.7 92.5 37 95 C40 96.3 49.5 100.8 55 103 C60.5 105.2 63.3 108 70 108 C76.7 108 88.3 105 95 103 C101.7 101 105 97.8 110 96 C115 94.2 122.5 92.7 125 92 C123.8 89.7 120.5 82.2 118 78 C115.5 73.8 111.3 68.8 110 67 C108.3 66.2 103 64 100 62 C97 60 94.5 57.8 92 55 C89.5 52.2 87.8 47.8 85 45 C82.2 42.2 78.8 40.5 75 38 C71.2 35.5 64.2 31.3 62 30 Z" fill="#f2d36b"/>
<path id="r9" d="M110 67 C113.3 65.3 122.5 59.8 130 57 C137.5 54.2 145.8 51.7 155 50 C164.2 48.3 180 47.5 185 47 C188.3 47.5 198.8 49.3 205 50 C211.2 50.7 217.5 50.7 222 51 C226.5 51.3 230.3 51.8 232 52 C231.3 53.8 229.7 59.2 228 63 C226.3 66.8 224.2 70.8 222 75 C219.8 79.2 215.7 84.2 215 88 C214.3 91.8 215.8 94.8 218 98 C220.2 101.2 226.3 105.5 228 107 C222.5 107.2 205.5 107.5 195 108 C184.5 108.5 174.2 110 165 110 C155.8 110 144.2 108.3 140 108 L125 92 C123.8 89.7 120.5 82.2 118 78 C115.5 73.8 111.3 68.8 110 67 Z" fill="#a99470"/>
<path id="r10" d="M232 52 C234.2 51.2 240 49 245 47 C250 45 259.2 41.2 262 40 C264.2 41.3 270.7 45.5 275 48 C279.3 50.5 284.2 53.3 288 55 C291.8 56.7 296.3 57.5 298 58 C297.3 60 293.7 65.5 294 70 C294.3 74.5 299.3 80 300 85 C300.7 90 298 94.5 298 100 C298 105.5 299.7 115 300 118 C298.3 118.3 295 118.8 290 120 C285 121.2 275.3 122.5 270 125 C264.7 127.5 260 133.3 258 135 C255.8 133.3 250 129.7 245 125 C240 120.3 230.8 110 228 107 C226.3 105.5 220.2 101.2 218 98 C215.8 94.8 214.3 91.8 215 88 C215.7 84.2 219.8 79.2 222 75 C224.2 70.8 226.3 66.8 228 63 C229.7 59.2 231.3 53.8 232 52 Z" fill="#b3db7a"/>
<path id="r11" d="M298 58 C300 55.8 306 48.8 310 45 C314 41.2 317.8 37.8 322 35 C326.2 32.2 332.8 29.2 335 28 C337.8 30.8 346.5 40 352 45 C357.5 50 365.3 55.8 368 58 C368.7 60.3 370.8 67 372 72 C373.2 77 375 83.3 375 88 C375 92.7 372.5 98 372 100 C369.7 100.8 362.5 102.3 358 105 C353.5 107.7 347.2 114.2 345 116 C340.8 116.3 327.5 117.7 320 118 C312.5 118.3 303.3 118 300 118 C299.7 115 298 105.5 298 100 C298 94.5 300.7 90 300 85 C299.3 80 294.3 74.5 294 70 C293.7 65.5 297.3 60 298 58 Z" fill="#bfc3cc"/>
<path id="r12" d="M368 58 C370.8 56.7 378 52 385 50 C392 48 402.5 47.7 410 46 C417.5 44.3 426.7 41 430 40 C433.3 40.8 443.3 42.5 450 45 C456.7 47.5 462.5 52.5 470 55 C477.5 57.5 490.8 59.2 495 60 C493.3 62.5 487.8 70 485 75 C482.2 80 479.2 84.8 478 90 C476.8 95.2 478 103.3 478 106 C474.2 106.7 462.2 109 455 110 C447.8 111 441.2 112 435 112 C428.8 112 420.8 110.3 418 110 C414.2 109.2 402.7 106.7 395 105 C387.3 103.3 375.8 100.8 372 100 C372.5 98 375 92.7 375 88 C375 83.3 373.2 77 372 72 C370.8 67 368.7 60.3 368 58 Z" fill="#f2d36b"/>
<path id="r13" d="M37 95 C35 96.7 29.5 102.2 25 105 C20.5 107.8 14.2 110.3 10 112 C5.8 113.7 1.7 114.5 0 115 L0 205 C6.7 205.3 28.3 207.3 40 207 C51.7 206.7 63.3 205.8 70 203 C76.7 200.2 75 193.5 80 190 C85 186.5 88.3 184 100 182 C111.7 180 141.7 178.7 150 178 C150.3 172.5 152 153.8 152 145 C152 136.2 152 131.2 150 125 C148 118.8 141.7 110.8 140 108 L125 92 C122.5 92.7 115 94.2 110 96 C105 97.8 101.7 101 95 103 C88.3 105 76.7 108 70 108 C63.3 108 60.5 105.2 55 103 C49.5 100.8 40 96.3 37 95 Z" fill="#bfc3cc"/>
<path id="r14" d="M140 108 C144.2 108.3 155.8 110 165 110 C174.2 110 184.5 108.5 195 108 C205.5 107.5 222.5 107.2 228 107 C230.8 110 240 120.3 245 125 C250 129.7 255.8 133.3 258 135 C257 138.3 253.3 148.3 252 155 C250.7 161.7 251.2 168.3 250 175 C248.8 181.7 245.8 191.7 245 195 C240.8 195 227.8 193.7 220 195 C212.2 196.3 201.7 201.7 198 203 C194.2 200 183 189.2 175 185 C167 180.8 154.2 179.2 150 178 C150.3 172.5 152 153.8 152 145 C152 136.2 152 131.2 150 125 C148 118.8 141.7 110.8 140 108 Z" fill="#a99470"/>
<path id="r15" d="M258 135 C260 133.3 264.7 127.5 270 125 C275.3 122.5 285 121.2 290 120 C295 118.8 298.3 118.3 300 118 C303.3 118 312.5 118.3 320 118 C327.5 117.7 340.8 116.3 345 116 C346.2 120 349.5 131.8 352 140 C354.5 148.2 359.2 157 360 165 C360.8 173 357.5 184.2 357 188 C355 190 349.5 196.8 345 200 C340.5 203.2 332.5 205.8 330 207 C326.7 207.5 316.7 209.8 310 210 C303.3 210.2 296.3 209.7 290 208 C283.7 206.3 275 201.3 272 200 C270 199.7 264.5 198.8 260 198 C255.5 197.2 247.5 195.5 245 195 C245.8 191.7 248.8 181.7 250 175 C251.2 168.3 250.7 161.7 252 155 C253.3 148.3 257 138.3 258 135 Z" fill="#7cbde8"/>
<path id="r16" d="M372 100 C369.7 100.8 362.5 102.3 358 105 C353.5 107.7 347.2 114.2 345 116 C346.2 120 349.5 131.8 352 140 C354.5 148.2 359.2 157 360 165 C360.8 173 357.5 184.2 357 188 C360.8 187.7 372 187 380 186 C388 185 400.8 182.7 405 182 C407.2 179.7 413.5 172 418 168 C422.5 164 429.7 159.7 432 158 C432 155.8 433.2 150 432 145 C430.8 140 427.3 133.8 425 128 C422.7 122.2 419.2 113 418 110 C414.2 109.2 402.7 106.7 395 105 C387.3 103.3 375.8 100.8 372 100 Z" fill="#bfc3cc"/>
<path id="r17" d="M478 106 C481.7 105.7 492.7 103.3 500 104 C507.3 104.7 518.3 109 522 110 C521.7 113.3 519 123.3 520 130 C521 136.7 526.7 146.7 528 150 C524.2 150.3 511.8 150.3 505 152 C498.2 153.7 490 158.7 487 160 C482.5 159.2 469.2 155.3 460 155 C450.8 154.7 436.7 157.5 432 158 C432 155.8 433.2 150 432 145 C430.8 140 427.3 133.8 425 128 C422.7 122.2 419.2 113 418 110 C420.8 110.3 428.8 112 435 112 C441.2 112 447.8 111 455 110 C462.2 109 474.2 106.7 478 106 Z" fill="#b3db7a"/>
<path id="r18" d="M522 110 C525.8 108.7 537 104.7 545 102 C553 99.3 561.3 95.7 570 94 C578.7 92.3 592.5 92.3 597 92 L597 190 C594.2 190.7 585.3 192.7 580 194 C574.7 195.3 567.5 197.3 565 198 C564.2 193.7 562.8 178.7 560 172 C557.2 165.3 553.3 161.7 548 158 C542.7 154.3 531.3 151.3 528 150 C526.7 146.7 521 136.7 520 130 C519 123.3 521.7 113.3 522 110 Z" fill="#bfc3cc"/>
<path id="r19" d="M0 205 C6.7 205.3 28.3 207.3 40 207 C51.7 206.7 63.3 205.8 70 203 C76.7 200.2 75 193.5 80 190 C85 186.5 88.3 184 100 182 C111.7 180 141.7 178.7 150 178 C154.2 179.2 167 180.8 175 185 C183 189.2 194.2 200 198 203 C197.5 205 197.2 211.3 195 215 C192.8 218.7 186.7 223.3 185 225 C181.7 226.2 171.2 229.2 165 232 C158.8 234.8 150.8 240.3 148 242 C144.2 241.3 133 238 125 238 C117 238 107.5 240 100 242 C92.5 244 87.5 246.7 80 250 C72.5 253.3 64.2 258.7 55 262 C45.8 265.3 34.2 267.3 25 270 C15.8 272.7 4.2 276.7 0 278 L0 205 Z" fill="#f2d36b"/>
<path id="r20" d="M198 203 C201.7 201.7 212.2 196.3 220 195 C227.8 193.7 240.8 195 245 195 C247.5 195.5 255.5 197.2 260 198 C264.5 198.8 270 199.7 272 200 C273 202.5 277.5 209.7 278 215 C278.5 220.3 274.7 226.5 275 232 C275.3 237.5 279.2 245.3 280 248 C275.8 247.7 263.3 246.8 255 246 C246.7 245.2 238.3 243.2 230 243 C221.7 242.8 209.2 244.7 205 245 C203.3 243.8 198.3 241.3 195 238 C191.7 234.7 186.7 227.2 185 225 C186.7 223.3 192.8 218.7 195 215 C197.2 211.3 197.5 205 198 203 Z" fill="#4f9a58"/>
<path id="r21" d="M272 200 C275 201.3 283.7 206.3 290 208 C296.3 209.7 303.3 210.2 310 210 C316.7 209.8 326.7 207.5 330 207 C331.7 209.5 336.7 215.7 340 222 C343.3 228.3 348.3 241.2 350 245 C349.2 247.8 346.3 255.8 345 262 C343.7 268.2 342.5 278.7 342 282 C339.2 280 331.2 274 325 270 C318.8 266 312.5 261.7 305 258 C297.5 254.3 284.2 249.7 280 248 C279.2 245.3 275.3 237.5 275 232 C274.7 226.5 278.5 220.3 278 215 C277.5 209.7 273 202.5 272 200 Z" fill="#b3db7a"/>
<path id="r22" d="M330 207 C332.5 205.8 340.5 203.2 345 200 C349.5 196.8 355 190 357 188 C360.8 187.7 372 187 380 186 C388 185 400.8 182.7 405 182 C404.2 184.7 400.8 192.5 400 198 C399.2 203.5 398.7 209.3 400 215 C401.3 220.7 406.7 229.2 408 232 L412 240 C406.7 241.7 390.3 249.2 380 250 C369.7 250.8 355 245.8 350 245 C348.3 241.2 343.3 228.3 340 222 C336.7 215.7 331.7 209.5 330 207 Z" fill="#a99470"/>
<path id="r23" d="M405 182 C407.2 179.7 413.5 172 418 168 C422.5 164 429.7 159.7 432 158 C436.7 157.5 450.8 154.7 460 155 C469.2 155.3 482.5 159.2 487 160 C486.2 163.3 483.5 173.3 482 180 C480.5 186.7 479.7 193.7 478 200 C476.3 206.3 473 215 472 218 C466.7 219.2 450.7 222.7 440 225 C429.3 227.3 413.3 230.8 408 232 C406.7 229.2 401.3 220.7 400 215 C398.7 209.3 399.2 203.5 400 198 C400.8 192.5 404.2 184.7 405 182 Z" fill="#f2d36b"/>
<path id="r24" d="M487 160 C490 158.7 498.2 153.7 505 152 C511.8 150.3 524.2 150.3 528 150 C531.3 151.3 542.7 154.3 548 158 C553.3 161.7 557.2 165.3 560 172 C562.8 178.7 564.2 193.7 565 198 C563.3 201.7 560.5 213.3 555 220 C549.5 226.7 540.3 232.7 532 238 C523.7 243.3 509.5 249.7 505 252 C502.5 249.2 495.5 240.7 490 235 C484.5 229.3 475 220.8 472 218 C473 215 476.3 206.3 478 200 C479.7 193.7 480.5 186.7 482 180 C483.5 173.3 486.2 163.3 487 160 Z" fill="#b3db7a"/>
<path id="r25" d="M0 278 C4.2 276.7 15.8 272.7 25 270 C34.2 267.3 45.8 265.3 55 262 C64.2 258.7 72.5 253.3 80 250 C87.5 246.7 92.5 244 100 242 C107.5 240 117 238 125 238 C133 238 144.2 241.3 148 242 C146.7 245 142.2 254.5 140 260 C137.8 265.5 135 268.8 135 275 C135 281.2 139.2 293.3 140 297 L0 297 L0 278 Z" fill="#b3db7a"/>
<path id="r26" d="M148 242 C150.8 240.3 158.8 234.8 165 232 C171.2 229.2 181.7 226.2 185 225 C186.7 227.2 191.7 234.7 195 238 C198.3 241.3 203.3 243.8 205 245 C206.2 248.8 211.5 259.3 212 268 C212.5 276.7 208.7 292.2 208 297 L140 297 C139.2 293.3 135 281.2 135 275 C135 268.8 137.8 265.5 140 260 C142.2 254.5 146.7 245 148 242 Z" fill="#bfc3cc"/>
<path id="r27" d="M205 245 C209.2 244.7 221.7 242.8 230 243 C238.3 243.2 246.7 245.2 255 246 C263.3 246.8 275.8 247.7 280 248 C284.2 249.7 297.5 254.3 305 258 C312.5 261.7 318.8 266 325 270 C331.2 274 339.2 280 342 282 L345 297 L208 297 C208.7 292.2 212.5 276.7 212 268 C211.5 259.3 206.2 248.8 205 245 Z" fill="#bfc3cc"/>
<path id="r28" d="M350 245 C349.2 247.8 346.3 255.8 345 262 C343.7 268.2 342.5 278.7 342 282 L345 297 L420 297 C420 294.2 420.3 286.2 420 280 C419.7 273.8 419.3 266.7 418 260 C416.7 253.3 413 243.3 412 240 C406.7 241.7 390.3 249.2 380 250 C369.7 250.8 355 245.8 350 245 Z" fill="#4f9a58"/>
<path id="r29" d="M408 232 L412 240 C413 243.3 416.7 253.3 418 260 C419.3 266.7 419.7 273.8 420 280 C420.3 286.2 420 294.2 420 297 L485 297 C487.2 292.8 494.7 279.5 498 272 C501.3 264.5 503.8 255.3 505 252 C502.5 249.2 495.5 240.7 490 235 C484.5 229.3 475 220.8 472 218 C466.7 219.2 450.7 222.7 440 225 C429.3 227.3 413.3 230.8 408 232 Z" fill="#4f9a58"/>
<path id="r30" d="M565 198 C567.5 197.3 574.7 195.3 580 194 C585.3 192.7 594.2 190.7 597 190 L597 297 L485 297 C487.2 292.8 494.7 279.5 498 272 C501.3 264.5 503.8 255.3 505 252 C509.5 249.7 523.7 243.3 532 238 C540.3 232.7 549.5 226.7 555 220 C560.5 213.3 563.3 201.7 565 198 Z" fill="#7cbde8"/>
<path d="M83 0 C81.7 2 77.2 8.3 75 12 C72.8 15.7 72.2 19 70 22 C67.8 25 63.3 28.7 62 30 M62 30 C59.2 30.8 49 32.5 45 35 C41 37.5 39.2 40 38 45 C36.8 50 38.5 59.2 38 65 C37.5 70.8 35.2 75 35 80 C34.8 85 36.7 92.5 37 95 M37 95 C35 96.7 29.5 102.2 25 105 C20.5 107.8 14.2 110.3 10 112 C5.8 113.7 1.7 114.5 0 115 M182 0 C181 2 177.3 7.8 176 12 C174.7 16.2 173.3 20.3 174 25 C174.7 29.7 178.2 36.3 180 40 C181.8 43.7 184.2 45.8 185 47 M62 30 C64.2 31.3 71.2 35.5 75 38 C78.8 40.5 82.2 42.2 85 45 C87.8 47.8 89.5 52.2 92 55 C94.5 57.8 97 60 100 62 C103 64 108.3 66.2 110 67 M110 67 C113.3 65.3 122.5 59.8 130 57 C137.5 54.2 145.8 51.7 155 50 C164.2 48.3 180 47.5 185 47 M264 0 C265 2.5 269 10.3 270 15 C271 19.7 271.3 23.8 270 28 C268.7 32.2 263.3 38 262 40 M185 47 C188.3 47.5 198.8 49.3 205 50 C211.2 50.7 217.5 50.7 222 51 C226.5 51.3 230.3 51.8 232 52 M232 52 C234.2 51.2 240 49 245 47 C250 45 259.2 41.2 262 40 M338 0 C337.5 2.5 335.5 10.3 335 15 C334.5 19.7 335 25.8 335 28 M262 40 C264.2 41.3 270.7 45.5 275 48 C279.3 50.5 284.2 53.3 288 55 C291.8 56.7 296.3 57.5 298 58 M298 58 C300 55.8 306 48.8 310 45 C314 41.2 317.8 37.8 322 35 C326.2 32.2 332.8 29.2 335 28 M448 0 C445.8 2.5 438 8.3 435 15 C432 21.7 430.8 35.8 430 40 M335 28 C337.8 30.8 346.5 40 352 45 C357.5 50 365.3 55.8 368 58 M368 58 C370.8 56.7 378 52 385 50 C392 48 402.5 47.7 410 46 C417.5 44.3 426.7 41 430 40 M552 0 C549.7 2.5 541.7 10 538 15 C534.3 20 530.5 25 530 30 C529.5 35 536.7 40.8 535 45 C533.3 49.2 526.7 52.5 520 55 C513.3 57.5 499.2 59.2 495 60 M430 40 C433.3 40.8 443.3 42.5 450 45 C456.7 47.5 462.5 52.5 470 55 C477.5 57.5 490.8 59.2 495 60 M495 60 C493.3 62.5 487.8 70 485 75 C482.2 80 479.2 84.8 478 90 C476.8 95.2 478 103.3 478 106 M478 106 C481.7 105.7 492.7 103.3 500 104 C507.3 104.7 518.3 109 522 110 M522 110 C525.8 108.7 537 104.7 545 102 C553 99.3 561.3 95.7 570 94 C578.7 92.3 592.5 92.3 597 92 M110 67 C111.3 68.8 115.5 73.8 118 78 C120.5 82.2 123.8 89.7 125 92 M37 95 C40 96.3 49.5 100.8 55 103 C60.5 105.2 63.3 108 70 108 C76.7 108 88.3 105 95 103 C101.7 101 105 97.8 110 96 C115 94.2 122.5 92.7 125 92 M232 52 C231.3 53.8 229.7 59.2 228 63 C226.3 66.8 224.2 70.8 222 75 C219.8 79.2 215.7 84.2 215 88 C214.3 91.8 215.8 94.8 218 98 C220.2 101.2 226.3 105.5 228 107 M125 92 L140 108 M140 108 C144.2 108.3 155.8 110 165 110 C174.2 110 184.5 108.5 195 108 C205.5 107.5 222.5 107.2 228 107 M298 58 C297.3 60 293.7 65.5 294 70 C294.3 74.5 299.3 80 300 85 C300.7 90 298 94.5 298 100 C298 105.5 299.7 115 300 118 M228 107 C230.8 110 240 120.3 245 125 C250 129.7 255.8 133.3 258 135 M258 135 C260 133.3 264.7 127.5 270 125 C275.3 122.5 285 121.2 290 120 C295 118.8 298.3 118.3 300 118 M368 58 C368.7 60.3 370.8 67 372 72 C373.2 77 375 83.3 375 88 C375 92.7 372.5 98 372 100 M300 118 C303.3 118 312.5 118.3 320 118 C327.5 117.7 340.8 116.3 345 116 M372 100 C369.7 100.8 362.5 102.3 358 105 C353.5 107.7 347.2 114.2 345 116 M372 100 C375.8 100.8 387.3 103.3 395 105 C402.7 106.7 414.2 109.2 418 110 M418 110 C420.8 110.3 428.8 112 435 112 C441.2 112 447.8 111 455 110 C462.2 109 474.2 106.7 478 106 M140 108 C141.7 110.8 148 118.8 150 125 C152 131.2 152 136.2 152 145 C152 153.8 150.3 172.5 150 178 M0 205 C6.7 205.3 28.3 207.3 40 207 C51.7 206.7 63.3 205.8 70 203 C76.7 200.2 75 193.5 80 190 C85 186.5 88.3 184 100 182 C111.7 180 141.7 178.7 150 178 M258 135 C257 138.3 253.3 148.3 252 155 C250.7 161.7 251.2 168.3 250 175 C248.8 181.7 245.8 191.7 245 195 M150 178 C154.2 179.2 167 180.8 175 185 C183 189.2 194.2 200 198 203 M198 203 C201.7 201.7 212.2 196.3 220 195 C227.8 193.7 240.8 195 245 195 M345 116 C346.2 120 349.5 131.8 352 140 C354.5 148.2 359.2 157 360 165 C360.8 173 357.5 184.2 357 188 M245 195 C247.5 195.5 255.5 197.2 260 198 C264.5 198.8 270 199.7 272 200 M272 200 C275 201.3 283.7 206.3 290 208 C296.3 209.7 303.3 210.2 310 210 C316.7 209.8 326.7 207.5 330 207 M330 207 C332.5 205.8 340.5 203.2 345 200 C349.5 196.8 355 190 357 188 M418 110 C419.2 113 422.7 122.2 425 128 C427.3 133.8 430.8 140 432 145 C433.2 150 432 155.8 432 158 M357 188 C360.8 187.7 372 187 380 186 C388 185 400.8 182.7 405 182 M405 182 C407.2 179.7 413.5 172 418 168 C422.5 164 429.7 159.7 432 158 M522 110 C521.7 113.3 519 123.3 520 130 C521 136.7 526.7 146.7 528 150 M432 158 C436.7 157.5 450.8 154.7 460 155 C469.2 155.3 482.5 159.2 487 160 M487 160 C490 158.7 498.2 153.7 505 152 C511.8 150.3 524.2 150.3 528 150 M528 150 C531.3 151.3 542.7 154.3 548 158 C553.3 161.7 557.2 165.3 560 172 C562.8 178.7 564.2 193.7 565 198 M565 198 C567.5 197.3 574.7 195.3 580 194 C585.3 192.7 594.2 190.7 597 190 M198 203 C197.5 205 197.2 211.3 195 215 C192.8 218.7 186.7 223.3 185 225 M0 278 C4.2 276.7 15.8 272.7 25 270 C34.2 267.3 45.8 265.3 55 262 C64.2 258.7 72.5 253.3 80 250 C87.5 246.7 92.5 244 100 242 C107.5 240 117 238 125 238 C133 238 144.2 241.3 148 242 M148 242 C150.8 240.3 158.8 234.8 165 232 C171.2 229.2 181.7 226.2 185 225 M272 200 C273 202.5 277.5 209.7 278 215 C278.5 220.3 274.7 226.5 275 232 C275.3 237.5 279.2 245.3 280 248 M185 225 C186.7 227.2 191.7 234.7 195 238 C198.3 241.3 203.3 243.8 205 245 M205 245 C209.2 244.7 221.7 242.8 230 243 C238.3 243.2 246.7 245.2 255 246 C263.3 246.8 275.8 247.7 280 248 M330 207 C331.7 209.5 336.7 215.7 340 222 C343.3 228.3 348.3 241.2 350 245 M280 248 C284.2 249.7 297.5 254.3 305 258 C312.5 261.7 318.8 266 325 270 C331.2 274 339.2 280 342 282 M350 245 C349.2 247.8 346.3 255.8 345 262 C343.7 268.2 342.5 278.7 342 282 M405 182 C404.2 184.7 400.8 192.5 400 198 C399.2 203.5 398.7 209.3 400 215 C401.3 220.7 406.7 229.2 408 232 M350 245 C355 245.8 369.7 250.8 380 250 C390.3 249.2 406.7 241.7 412 240 M408 232 L412 240 M487 160 C486.2 163.3 483.5 173.3 482 180 C480.5 186.7 479.7 193.7 478 200 C476.3 206.3 473 215 472 218 M408 232 C413.3 230.8 429.3 227.3 440 225 C450.7 222.7 466.7 219.2 472 218 M472 218 C475 220.8 484.5 229.3 490 235 C495.5 240.7 502.5 249.2 505 252 M565 198 C563.3 201.7 560.5 213.3 555 220 C549.5 226.7 540.3 232.7 532 238 C523.7 243.3 509.5 249.7 505 252 M148 242 C146.7 245 142.2 254.5 140 260 C137.8 265.5 135 268.8 135 275 C135 281.2 139.2 293.3 140 297 M205 245 C206.2 248.8 211.5 259.3 212 268 C212.5 276.7 208.7 292.2 208 297 M342 282 L345 297 M412 240 C413 243.3 416.7 253.3 418 260 C419.3 266.7 419.7 273.8 420 280 C420.3 286.2 420 294.2 420 297 M505 252 C503.8 255.3 501.3 264.5 498 272 C494.7 279.5 487.2 292.8 485 297" fill="none" stroke="#fbf7ec" stroke-width="2.2" stroke-linejoin="round" stroke-linecap="round"/>
<g transform="translate(30 14)" opacity="0.85"><path d="M-8 -2 Q-6 -4 -4 -2 T0 -2 T4 -2 T8 -2 M-8 3 Q-6 1 -4 3 T0 3 T4 3 T8 3" stroke="#4f95c9" stroke-width="1.6" stroke-linecap="round" stroke-linejoin="round" fill="none"/></g>
<text x="12" y="12" font-family="'DejaVu Sans', Verdana, Arial, sans-serif" font-size="10" font-weight="bold" text-anchor="middle" dominant-baseline="central" fill="#2b2b2b" stroke="#ffffff" stroke-width="2.4" stroke-linejoin="round" paint-order="stroke">1</text>
<g transform="translate(88 30)" opacity="0.85"><path d="M0 -8 L5 -1 H2.5 L6.5 5 H-6.5 L-2.5 -1 H-5 Z" fill="#2f6e3a"/><path d="M0 5 V8" stroke="#2f6e3a" stroke-width="1.6" stroke-linecap="round" stroke-linejoin="round"/></g>
<g transform="translate(110 18)"><circle r="7" fill="#c0392b" stroke="#ffffff" stroke-width="1"/><path d="M-3.5 3.5 L3 -3 M3.5 3.5 L-3 -3" stroke="#ffffff" stroke-width="1.5" stroke-linecap="round"/><path d="M0.5 -5 Q4.5 -4.5 5 -0.5" stroke="#ffffff" stroke-width="1.6" fill="none" stroke-linecap="round"/><rect x="-5.2" y="-5.2" width="3.4" height="2.2" transform="rotate(45 -3.5 -4.1)" fill="#ffffff"/></g>
<text x="90" y="12" font-family="'DejaVu Sans', Verdana, Arial, sans-serif" font-size="10" font-weight="bold" text-anchor="middle" dominant-baseline="central" fill="#2b2b2b" stroke="#ffffff" stroke-width="2.4" stroke-linejoin="round" paint-order="stroke">2</text>
<text x="189.8" y="12" font-family="'DejaVu Sans', Verdana, Arial, sans-serif" font-size="10" font-weight="bold" text-anchor="middle" dominant-baseline="central" fill="#2b2b2b" stroke="#ffffff" stroke-width="2.4" stroke-linejoin="round" paint-order="stroke">3</text>
<g transform="translate(274 38)" opacity="0.85"><path d="M0 -7 V7" stroke="#c9a43a" stroke-width="1.6" stroke-linecap="round" stroke-linejoin="round" fill="none"/><ellipse cx="0" cy="-7" rx="1.4" ry="2.4" fill="#c9a43a"/><ellipse cx="-2.2" cy="-4" rx="1.6" ry="2.6" transform="rotate(-30 -2.2 -4)" fill="#c9a43a"/><ellipse cx="2.2" cy="-4" rx="1.6" ry="2.6" transform="rotate(30 2.2 -4)" fill="#c9a43a"/><ellipse cx="-2.2" cy="-0.5" rx="1.6" ry="2.6" transform="rotate(-30 -2.2 -0.5)" fill="#c9a43a"/><ellipse cx="2.2" cy="-0.5" rx="1.6" ry="2.6" transform="rotate(30 2.2 -0.5)" fill="#c9a43a"/><ellipse cx="-2.2" cy="3" rx="1.6" ry="2.6" transform="rotate(-30 -2.2 3)" fill="#c9a43a"/><ellipse cx="2.2" cy="3" rx="1.6" ry="2.6" transform="rotate(30 2.2 3)" fill="#c9a43a"/></g>
<text x="278" y="10" font-family="'DejaVu Sans', Verdana, Arial, sans-serif" font-size="10" font-weight="bold" text-anchor="middle" dominant-baseline="central" fill="#2b2b2b" stroke="#ffffff" stroke-width="2.4" stroke-linejoin="round" paint-order="stroke">4</text>
<g transform="translate(366.8 14)" opacity="0.85"><path d="M-4 4 V-4 M0 4 V-7 M4 4 V-3" stroke="#7c6847" stroke-width="1.6" stroke-linecap="round" stroke-linejoin="round" fill="none"/><ellipse cx="-4" cy="-5" rx="1.3" ry="2.4" fill="#7c6847"/><ellipse cx="0" cy="-8" rx="1.3" ry="2.4" fill="#7c6847"/><ellipse cx="4" cy="-4" rx="1.3" ry="2.4" fill="#7c6847"/><path d="M-8 6 Q-6 4 -4 6 T0 6 T4 6 T8 6" stroke="#7c6847" stroke-width="1.6" stroke-linecap="round" stroke-linejoin="round" fill="none"/></g>
<g transform="translate(362.8 36)"><circle r="7" fill="#4a4a4a" stroke="#ffffff" stroke-width="1"/><path d="M-5 4 Q-5 -5 0 -5 Q5 -5 5 4 Z" fill="#9a9a9a"/><path d="M-2.8 4 Q-2.8 -2 0 -2 Q2.8 -2 2.8 4 Z" fill="#111111"/></g>
<text x="348.8" y="12" font-family="'DejaVu Sans', Verdana, Arial, sans-serif" font-size="10" font-weight="bold" text-anchor="middle" dominant-baseline="central" fill="#2b2b2b" stroke="#ffffff" stroke-width="2.4" stroke-linejoin="round" paint-order="stroke">5</text>
<g transform="translate(520 14)" opacity="0.85"><path d="M0 -8 L5 -1 H2.5 L6.5 5 H-6.5 L-2.5 -1 H-5 Z" fill="#2f6e3a"/><path d="M0 5 V8" stroke="#2f6e3a" stroke-width="1.6" stroke-linecap="round" stroke-linejoin="round"/></g>
<g transform="translate(454 32)"><rect x="-5" y="-5" width="10" height="10" rx="1.5" fill="#ece7dc" stroke="#6f6a60" stroke-width="0.9"/><circle cy="-2" r="1.6" fill="#6f6a60"/><path d="M-2.6 3.6 Q0 -1.2 2.6 3.6 Z" fill="#6f6a60"/></g>
<text x="454" y="12" font-family="'DejaVu Sans', Verdana, Arial, sans-serif" font-size="10" font-weight="bold" text-anchor="middle" dominant-baseline="central" fill="#2b2b2b" stroke="#ffffff" stroke-width="2.4" stroke-linejoin="round" paint-order="stroke">6</text>
<g transform="translate(575.5 14)" opacity="0.85"><path d="M-4 4 V-4 M0 4 V-7 M4 4 V-3" stroke="#7c6847" stroke-width="1.6" stroke-linecap="round" stroke-linejoin="round" fill="none"/><ellipse cx="-4" cy="-5" rx="1.3" ry="2.4" fill="#7c6847"/><ellipse cx="0" cy="-8" rx="1.3" ry="2.4" fill="#7c6847"/><ellipse cx="4" cy="-4" rx="1.3" ry="2.4" fill="#7c6847"/><path d="M-8 6 Q-6 4 -4 6 T0 6 T4 6 T8 6" stroke="#7c6847" stroke-width="1.6" stroke-linecap="round" stroke-linejoin="round" fill="none"/></g>
<g transform="translate(555.5 48)"><circle r="7" fill="#c0392b" stroke="#ffffff" stroke-width="1"/><path d="M-3.5 3.5 L3 -3 M3.5 3.5 L-3 -3" stroke="#ffffff" stroke-width="1.5" stroke-linecap="round"/><path d="M0.5 -5 Q4.5 -4.5 5 -0.5" stroke="#ffffff" stroke-width="1.6" fill="none" stroke-linecap="round"/><rect x="-5.2" y="-5.2" width="3.4" height="2.2" transform="rotate(45 -3.5 -4.1)" fill="#ffffff"/></g>
<text x="557.5" y="12" font-family="'DejaVu Sans', Verdana, Arial, sans-serif" font-size="10" font-weight="bold" text-anchor="middle" dominant-baseline="central" fill="#2b2b2b" stroke="#ffffff" stroke-width="2.4" stroke-linejoin="round" paint-order="stroke">7</text>
<g transform="translate(69 50)" opacity="0.85"><path d="M0 -7 V7" stroke="#c9a43a" stroke-width="1.6" stroke-linecap="round" stroke-linejoin="round" fill="none"/><ellipse cx="0" cy="-7" rx="1.4" ry="2.4" fill="#c9a43a"/><ellipse cx="-2.2" cy="-4" rx="1.6" ry="2.6" transform="rotate(-30 -2.2 -4)" fill="#c9a43a"/><ellipse cx="2.2" cy="-4" rx="1.6" ry="2.6" transform="rotate(30 2.2 -4)" fill="#c9a43a"/><ellipse cx="-2.2" cy="-0.5" rx="1.6" ry="2.6" transform="rotate(-30 -2.2 -0.5)" fill="#c9a43a"/><ellipse cx="2.2" cy="-0.5" rx="1.6" ry="2.6" transform="rotate(30 2.2 -0.5)" fill="#c9a43a"/><ellipse cx="-2.2" cy="3" rx="1.6" ry="2.6" transform="rotate(-30 -2.2 3)" fill="#c9a43a"/><ellipse cx="2.2" cy="3" rx="1.6" ry="2.6" transform="rotate(30 2.2 3)" fill="#c9a43a"/></g>
<g transform="translate(105 82)"><circle r="7" fill="#2f5fbf" stroke="#ffffff" stroke-width="1"/><path d="M0 -5 L2 0 L0 5 L-2 0 Z M-3.6 -2 L-2.4 1.2 L-3.6 4.4 L-4.8 1.2 Z M3.6 -2 L4.8 1.2 L3.6 4.4 L2.4 1.2 Z" fill="#dff3ff"/></g>
<g transform="translate(49 60)"><rect x="-5" y="-5" width="10" height="10" rx="1.5" fill="#ece7dc" stroke="#6f6a60" stroke-width="0.9"/><circle cy="-2" r="1.6" fill="#6f6a60"/><path d="M-2.6 3.6 Q0 -1.2 2.6 3.6 Z" fill="#6f6a60"/></g>
<text x="55" y="44" font-family="'DejaVu Sans', Verdana, Arial, sans-serif" font-size="10" font-weight="bold" text-anchor="middle" dominant-baseline="central" fill="#2b2b2b" stroke="#ffffff" stroke-width="2.4" stroke-linejoin="round" paint-order="stroke">8</text>
<g transform="translate(138 69)" opacity="0.85"><path d="M-4 4 V-4 M0 4 V-7 M4 4 V-3" stroke="#7c6847" stroke-width="1.6" stroke-linecap="round" stroke-linejoin="round" fill="none"/><ellipse cx="-4" cy="-5" rx="1.3" ry="2.4" fill="#7c6847"/><ellipse cx="0" cy="-8" rx="1.3" ry="2.4" fill="#7c6847"/><ellipse cx="4" cy="-4" rx="1.3" ry="2.4" fill="#7c6847"/><path d="M-8 6 Q-6 4 -4 6 T0 6 T4 6 T8 6" stroke="#7c6847" stroke-width="1.6" stroke-linecap="round" stroke-linejoin="round" fill="none"/></g>
<text x="160" y="61" font-family="'DejaVu Sans', Verdana, Arial, sans-serif" font-size="10" font-weight="bold" text-anchor="middle" dominant-baseline="central" fill="#2b2b2b" stroke="#ffffff" stroke-width="2.4" stroke-linejoin="round" paint-order="stroke">9</text>
<g transform="translate(284.8 108)" opacity="0.85"><path d="M-8 5 Q-4 -5 1 5 Z M-2 5 Q3 -2 8 5 Z" fill="#80ad4c"/></g>
<g transform="translate(286.8 90)"><circle r="7" fill="#2f5fbf" stroke="#ffffff" stroke-width="1"/><path d="M0 -5 L2 0 L0 5 L-2 0 Z M-3.6 -2 L-2.4 1.2 L-3.6 4.4 L-4.8 1.2 Z M3.6 -2 L4.8 1.2 L3.6 4.4 L2.4 1.2 Z" fill="#dff3ff"/></g>
<g transform="translate(240.8 66)"><rect x="-5" y="-5" width="10" height="10" rx="1.5" fill="#ece7dc" stroke="#6f6a60" stroke-width="0.9"/><circle cy="-2" r="1.6" fill="#6f6a60"/><path d="M-2.6 3.6 Q0 -1.2 2.6 3.6 Z" fill="#6f6a60"/></g>
<text x="258.8" y="54" font-family="'DejaVu Sans', Verdana, Arial, sans-serif" font-size="10" font-weight="bold" text-anchor="middle" dominant-baseline="central" fill="#2b2b2b" stroke="#ffffff" stroke-width="2.4" stroke-linejoin="round" paint-order="stroke">10</text>
<g transform="translate(312 64)"><circle r="7" fill="#c0392b" stroke="#ffffff" stroke-width="1"/><path d="M-3.5 3.5 L3 -3 M3.5 3.5 L-3 -3" stroke="#ffffff" stroke-width="1.5" stroke-linecap="round"/><path d="M0.5 -5 Q4.5 -4.5 5 -0.5" stroke="#ffffff" stroke-width="1.6" fill="none" stroke-linecap="round"/><rect x="-5.2" y="-5.2" width="3.4" height="2.2" transform="rotate(45 -3.5 -4.1)" fill="#ffffff"/></g>
<text x="330" y="44" font-family="'DejaVu Sans', Verdana, Arial, sans-serif" font-size="10" font-weight="bold" text-anchor="middle" dominant-baseline="central" fill="#2b2b2b" stroke="#ffffff" stroke-width="2.4" stroke-linejoin="round" paint-order="stroke">11</text>
<g transform="translate(394 62)" opacity="0.85"><path d="M0 -7 V7" stroke="#c9a43a" stroke-width="1.6" stroke-linecap="round" stroke-linejoin="round" fill="none"/><ellipse cx="0" cy="-7" rx="1.4" ry="2.4" fill="#c9a43a"/><ellipse cx="-2.2" cy="-4" rx="1.6" ry="2.6" transform="rotate(-30 -2.2 -4)" fill="#c9a43a"/><ellipse cx="2.2" cy="-4" rx="1.6" ry="2.6" transform="rotate(30 2.2 -4)" fill="#c9a43a"/><ellipse cx="-2.2" cy="-0.5" rx="1.6" ry="2.6" transform="rotate(-30 -2.2 -0.5)" fill="#c9a43a"/><ellipse cx="2.2" cy="-0.5" rx="1.6" ry="2.6" transform="rotate(30 2.2 -0.5)" fill="#c9a43a"/><ellipse cx="-2.2" cy="3" rx="1.6" ry="2.6" transform="rotate(-30 -2.2 3)" fill="#c9a43a"/><ellipse cx="2.2" cy="3" rx="1.6" ry="2.6" transform="rotate(30 2.2 3)" fill="#c9a43a"/></g>
<g transform="translate(424 72)"><rect x="-5" y="-5" width="10" height="10" rx="1.5" fill="#ece7dc" stroke="#6f6a60" stroke-width="0.9"/><circle cy="-2" r="1.6" fill="#6f6a60"/><path d="M-2.6 3.6 Q0 -1.2 2.6 3.6 Z" fill="#6f6a60"/></g>
<text x="426" y="54" font-family="'DejaVu Sans', Verdana, Arial, sans-serif" font-size="10" font-weight="bold" text-anchor="middle" dominant-baseline="central" fill="#2b2b2b" stroke="#ffffff" stroke-width="2.4" stroke-linejoin="round" paint-order="stroke">12</text>
<g transform="translate(92 150)"><circle r="7" fill="#c0392b" stroke="#ffffff" stroke-width="1"/><path d="M-3.5 3.5 L3 -3 M3.5 3.5 L-3 -3" stroke="#ffffff" stroke-width="1.5" stroke-linecap="round"/><path d="M0.5 -5 Q4.5 -4.5 5 -0.5" stroke="#ffffff" stroke-width="1.6" fill="none" stroke-linecap="round"/><rect x="-5.2" y="-5.2" width="3.4" height="2.2" transform="rotate(45 -3.5 -4.1)" fill="#ffffff"/></g>
<g transform="translate(60 182)"><circle r="7" fill="#4a4a4a" stroke="#ffffff" stroke-width="1"/><path d="M-5 4 Q-5 -5 0 -5 Q5 -5 5 4 Z" fill="#9a9a9a"/><path d="M-2.8 4 Q-2.8 -2 0 -2 Q2.8 -2 2.8 4 Z" fill="#111111"/></g>
<text x="118" y="106" font-family="'DejaVu Sans', Verdana, Arial, sans-serif" font-size="10" font-weight="bold" text-anchor="middle" dominant-baseline="central" fill="#2b2b2b" stroke="#ffffff" stroke-width="2.4" stroke-linejoin="round" paint-order="stroke">13</text>
<g transform="translate(182 123)" opacity="0.85"><path d="M-4 4 V-4 M0 4 V-7 M4 4 V-3" stroke="#7c6847" stroke-width="1.6" stroke-linecap="round" stroke-linejoin="round" fill="none"/><ellipse cx="-4" cy="-5" rx="1.3" ry="2.4" fill="#7c6847"/><ellipse cx="0" cy="-8" rx="1.3" ry="2.4" fill="#7c6847"/><ellipse cx="4" cy="-4" rx="1.3" ry="2.4" fill="#7c6847"/><path d="M-8 6 Q-6 4 -4 6 T0 6 T4 6 T8 6" stroke="#7c6847" stroke-width="1.6" stroke-linecap="round" stroke-linejoin="round" fill="none"/></g>
<g transform="translate(174 141)"><rect x="-5" y="-5" width="10" height="10" rx="1.5" fill="#ece7dc" stroke="#6f6a60" stroke-width="0.9"/><circle cy="-2" r="1.6" fill="#6f6a60"/><path d="M-2.6 3.6 Q0 -1.2 2.6 3.6 Z" fill="#6f6a60"/></g>
<text x="210" y="119" font-family="'DejaVu Sans', Verdana, Arial, sans-serif" font-size="10" font-weight="bold" text-anchor="middle" dominant-baseline="central" fill="#2b2b2b" stroke="#ffffff" stroke-width="2.4" stroke-linejoin="round" paint-order="stroke">14</text>
<g transform="translate(317 132)" opacity="0.85"><path d="M-8 -2 Q-6 -4 -4 -2 T0 -2 T4 -2 T8 -2 M-8 3 Q-6 1 -4 3 T0 3 T4 3 T8 3" stroke="#4f95c9" stroke-width="1.6" stroke-linecap="round" stroke-linejoin="round" fill="none"/></g>
<text x="299" y="130" font-family="'DejaVu Sans', Verdana, Arial, sans-serif" font-size="10" font-weight="bold" text-anchor="middle" dominant-baseline="central" fill="#2b2b2b" stroke="#ffffff" stroke-width="2.4" stroke-linejoin="round" paint-order="stroke">15</text>
<g transform="translate(397 144)"><circle r="7" fill="#4a4a4a" stroke="#ffffff" stroke-width="1"/><path d="M-5 4 Q-5 -5 0 -5 Q5 -5 5 4 Z" fill="#9a9a9a"/><path d="M-2.8 4 Q-2.8 -2 0 -2 Q2.8 -2 2.8 4 Z" fill="#111111"/></g>
<text x="373" y="112" font-family="'DejaVu Sans', Verdana, Arial, sans-serif" font-size="10" font-weight="bold" text-anchor="middle" dominant-baseline="central" fill="#2b2b2b" stroke="#ffffff" stroke-width="2.4" stroke-linejoin="round" paint-order="stroke">16</text>
<g transform="translate(508 137.9)" opacity="0.85"><path d="M-8 5 Q-4 -5 1 5 Z M-2 5 Q3 -2 8 5 Z" fill="#80ad4c"/></g>
<g transform="translate(444 131.9)"><circle r="7" fill="#2f5fbf" stroke="#ffffff" stroke-width="1"/><path d="M0 -5 L2 0 L0 5 L-2 0 Z M-3.6 -2 L-2.4 1.2 L-3.6 4.4 L-4.8 1.2 Z M3.6 -2 L4.8 1.2 L3.6 4.4 L2.4 1.2 Z" fill="#dff3ff"/></g>
<text x="508" y="117.9" font-family="'DejaVu Sans', Verdana, Arial, sans-serif" font-size="10" font-weight="bold" text-anchor="middle" dominant-baseline="central" fill="#2b2b2b" stroke="#ffffff" stroke-width="2.4" stroke-linejoin="round" paint-order="stroke">17</text>
<text x="569.8" y="106" font-family="'DejaVu Sans', Verdana, Arial, sans-serif" font-size="10" font-weight="bold" text-anchor="middle" dominant-baseline="central" fill="#2b2b2b" stroke="#ffffff" stroke-width="2.4" stroke-linejoin="round" paint-order="stroke">18</text>
<g transform="translate(162 196)" opacity="0.85"><path d="M0 -7 V7" stroke="#c9a43a" stroke-width="1.6" stroke-linecap="round" stroke-linejoin="round" fill="none"/><ellipse cx="0" cy="-7" rx="1.4" ry="2.4" fill="#c9a43a"/><ellipse cx="-2.2" cy="-4" rx="1.6" ry="2.6" transform="rotate(-30 -2.2 -4)" fill="#c9a43a"/><ellipse cx="2.2" cy="-4" rx="1.6" ry="2.6" transform="rotate(30 2.2 -4)" fill="#c9a43a"/><ellipse cx="-2.2" cy="-0.5" rx="1.6" ry="2.6" transform="rotate(-30 -2.2 -0.5)" fill="#c9a43a"/><ellipse cx="2.2" cy="-0.5" rx="1.6" ry="2.6" transform="rotate(30 2.2 -0.5)" fill="#c9a43a"/><ellipse cx="-2.2" cy="3" rx="1.6" ry="2.6" transform="rotate(-30 -2.2 3)" fill="#c9a43a"/><ellipse cx="2.2" cy="3" rx="1.6" ry="2.6" transform="rotate(30 2.2 3)" fill="#c9a43a"/></g>
<g transform="translate(64 224)"><circle r="7" fill="#2f5fbf" stroke="#ffffff" stroke-width="1"/><path d="M0 -5 L2 0 L0 5 L-2 0 Z M-3.6 -2 L-2.4 1.2 L-3.6 4.4 L-4.8 1.2 Z M3.6 -2 L4.8 1.2 L3.6 4.4 L2.4 1.2 Z" fill="#dff3ff"/></g>
<text x="144" y="190" font-family="'DejaVu Sans', Verdana, Arial, sans-serif" font-size="10" font-weight="bold" text-anchor="middle" dominant-baseline="central" fill="#2b2b2b" stroke="#ffffff" stroke-width="2.4" stroke-linejoin="round" paint-order="stroke">19</text>
<g transform="translate(207 210.4)" opacity="0.85"><path d="M0 -8 L5 -1 H2.5 L6.5 5 H-6.5 L-2.5 -1 H-5 Z" fill="#2f6e3a"/><path d="M0 5 V8" stroke="#2f6e3a" stroke-width="1.6" stroke-linecap="round" stroke-linejoin="round"/></g>
<g transform="translate(263 234.4)"><circle r="7" fill="#4a4a4a" stroke="#ffffff" stroke-width="1"/><path d="M-5 4 Q-5 -5 0 -5 Q5 -5 5 4 Z" fill="#9a9a9a"/><path d="M-2.8 4 Q-2.8 -2 0 -2 Q2.8 -2 2.8 4 Z" fill="#111111"/></g>
<g transform="translate(265 214.4)"><rect x="-5" y="-5" width="10" height="10" rx="1.5" fill="#ece7dc" stroke="#6f6a60" stroke-width="0.9"/><circle cy="-2" r="1.6" fill="#6f6a60"/><path d="M-2.6 3.6 Q0 -1.2 2.6 3.6 Z" fill="#6f6a60"/></g>
<text x="203" y="224.4" font-family="'DejaVu Sans', Verdana, Arial, sans-serif" font-size="10" font-weight="bold" text-anchor="middle" dominant-baseline="central" fill="#2b2b2b" stroke="#ffffff" stroke-width="2.4" stroke-linejoin="round" paint-order="stroke">20</text>
<g transform="translate(308 224)" opacity="0.85"><path d="M-8 5 Q-4 -5 1 5 Z M-2 5 Q3 -2 8 5 Z" fill="#80ad4c"/></g>
<text x="290" y="220" font-family="'DejaVu Sans', Verdana, Arial, sans-serif" font-size="10" font-weight="bold" text-anchor="middle" dominant-baseline="central" fill="#2b2b2b" stroke="#ffffff" stroke-width="2.4" stroke-linejoin="round" paint-order="stroke">21</text>
<g transform="translate(352 224)" opacity="0.85"><path d="M-4 4 V-4 M0 4 V-7 M4 4 V-3" stroke="#7c6847" stroke-width="1.6" stroke-linecap="round" stroke-linejoin="round" fill="none"/><ellipse cx="-4" cy="-5" rx="1.3" ry="2.4" fill="#7c6847"/><ellipse cx="0" cy="-8" rx="1.3" ry="2.4" fill="#7c6847"/><ellipse cx="4" cy="-4" rx="1.3" ry="2.4" fill="#7c6847"/><path d="M-8 6 Q-6 4 -4 6 T0 6 T4 6 T8 6" stroke="#7c6847" stroke-width="1.6" stroke-linecap="round" stroke-linejoin="round" fill="none"/></g>
<g transform="translate(358 236)"><circle r="7" fill="#2f5fbf" stroke="#ffffff" stroke-width="1"/><path d="M0 -5 L2 0 L0 5 L-2 0 Z M-3.6 -2 L-2.4 1.2 L-3.6 4.4 L-4.8 1.2 Z M3.6 -2 L4.8 1.2 L3.6 4.4 L2.4 1.2 Z" fill="#dff3ff"/></g>
<g transform="translate(398 236)"><rect x="-5" y="-5" width="10" height="10" rx="1.5" fill="#ece7dc" stroke="#6f6a60" stroke-width="0.9"/><circle cy="-2" r="1.6" fill="#6f6a60"/><path d="M-2.6 3.6 Q0 -1.2 2.6 3.6 Z" fill="#6f6a60"/></g>
<text x="348" y="212" font-family="'DejaVu Sans', Verdana, Arial, sans-serif" font-size="10" font-weight="bold" text-anchor="middle" dominant-baseline="central" fill="#2b2b2b" stroke="#ffffff" stroke-width="2.4" stroke-linejoin="round" paint-order="stroke">22</text>
<g transform="translate(415.2 193)" opacity="0.85"><path d="M0 -7 V7" stroke="#c9a43a" stroke-width="1.6" stroke-linecap="round" stroke-linejoin="round" fill="none"/><ellipse cx="0" cy="-7" rx="1.4" ry="2.4" fill="#c9a43a"/><ellipse cx="-2.2" cy="-4" rx="1.6" ry="2.6" transform="rotate(-30 -2.2 -4)" fill="#c9a43a"/><ellipse cx="2.2" cy="-4" rx="1.6" ry="2.6" transform="rotate(30 2.2 -4)" fill="#c9a43a"/><ellipse cx="-2.2" cy="-0.5" rx="1.6" ry="2.6" transform="rotate(-30 -2.2 -0.5)" fill="#c9a43a"/><ellipse cx="2.2" cy="-0.5" rx="1.6" ry="2.6" transform="rotate(30 2.2 -0.5)" fill="#c9a43a"/><ellipse cx="-2.2" cy="3" rx="1.6" ry="2.6" transform="rotate(-30 -2.2 3)" fill="#c9a43a"/><ellipse cx="2.2" cy="3" rx="1.6" ry="2.6" transform="rotate(30 2.2 3)" fill="#c9a43a"/></g>
<g transform="translate(421.2 209)"><rect x="-5" y="-5" width="10" height="10" rx="1.5" fill="#ece7dc" stroke="#6f6a60" stroke-width="0.9"/><circle cy="-2" r="1.6" fill="#6f6a60"/><path d="M-2.6 3.6 Q0 -1.2 2.6 3.6 Z" fill="#6f6a60"/></g>
<text x="423.2" y="179" font-family="'DejaVu Sans', Verdana, Arial, sans-serif" font-size="10" font-weight="bold" text-anchor="middle" dominant-baseline="central" fill="#2b2b2b" stroke="#ffffff" stroke-width="2.4" stroke-linejoin="round" paint-order="stroke">23</text>
<g transform="translate(502 168)" opacity="0.85"><path d="M-8 5 Q-4 -5 1 5 Z M-2 5 Q3 -2 8 5 Z" fill="#80ad4c"/></g>
<g transform="translate(494 196)"><circle r="7" fill="#4a4a4a" stroke="#ffffff" stroke-width="1"/><path d="M-5 4 Q-5 -5 0 -5 Q5 -5 5 4 Z" fill="#9a9a9a"/><path d="M-2.8 4 Q-2.8 -2 0 -2 Q2.8 -2 2.8 4 Z" fill="#111111"/></g>
<g transform="translate(494 214)"><rect x="-5" y="-5" width="10" height="10" rx="1.5" fill="#ece7dc" stroke="#6f6a60" stroke-width="0.9"/><circle cy="-2" r="1.6" fill="#6f6a60"/><path d="M-2.6 3.6 Q0 -1.2 2.6 3.6 Z" fill="#6f6a60"/></g>
<text x="520" y="162" font-family="'DejaVu Sans', Verdana, Arial, sans-serif" font-size="10" font-weight="bold" text-anchor="middle" dominant-baseline="central" fill="#2b2b2b" stroke="#ffffff" stroke-width="2.4" stroke-linejoin="round" paint-order="stroke">24</text>
<g transform="translate(124 284)" opacity="0.85"><path d="M-8 5 Q-4 -5 1 5 Z M-2 5 Q3 -2 8 5 Z" fill="#80ad4c"/></g>
<text x="78" y="264" font-family="'DejaVu Sans', Verdana, Arial, sans-serif" font-size="10" font-weight="bold" text-anchor="middle" dominant-baseline="central" fill="#2b2b2b" stroke="#ffffff" stroke-width="2.4" stroke-linejoin="round" paint-order="stroke">25</text>
<text x="149" y="285" font-family="'DejaVu Sans', Verdana, Arial, sans-serif" font-size="10" font-weight="bold" text-anchor="middle" dominant-baseline="central" fill="#2b2b2b" stroke="#ffffff" stroke-width="2.4" stroke-linejoin="round" paint-order="stroke">26</text>
<text x="273" y="261" font-family="'DejaVu Sans', Verdana, Arial, sans-serif" font-size="10" font-weight="bold" text-anchor="middle" dominant-baseline="central" fill="#2b2b2b" stroke="#ffffff" stroke-width="2.4" stroke-linejoin="round" paint-order="stroke">27</text>
<g transform="translate(354 286)" opacity="0.85"><path d="M0 -8 L5 -1 H2.5 L6.5 5 H-6.5 L-2.5 -1 H-5 Z" fill="#2f6e3a"/><path d="M0 5 V8" stroke="#2f6e3a" stroke-width="1.6" stroke-linecap="round" stroke-linejoin="round"/></g>
<text x="408" y="286" font-family="'DejaVu Sans', Verdana, Arial, sans-serif" font-size="10" font-weight="bold" text-anchor="middle" dominant-baseline="central" fill="#2b2b2b" stroke="#ffffff" stroke-width="2.4" stroke-linejoin="round" paint-order="stroke">28</text>
<g transform="translate(478 282)" opacity="0.85"><path d="M0 -8 L5 -1 H2.5 L6.5 5 H-6.5 L-2.5 -1 H-5 Z" fill="#2f6e3a"/><path d="M0 5 V8" stroke="#2f6e3a" stroke-width="1.6" stroke-linecap="round" stroke-linejoin="round"/></g>
<g transform="translate(430 240)"><circle r="7" fill="#c0392b" stroke="#ffffff" stroke-width="1"/><path d="M-3.5 3.5 L3 -3 M3.5 3.5 L-3 -3" stroke="#ffffff" stroke-width="1.5" stroke-linecap="round"/><path d="M0.5 -5 Q4.5 -4.5 5 -0.5" stroke="#ffffff" stroke-width="1.6" fill="none" stroke-linecap="round"/><rect x="-5.2" y="-5.2" width="3.4" height="2.2" transform="rotate(45 -3.5 -4.1)" fill="#ffffff"/></g>
<g transform="translate(482 264)"><rect x="-5" y="-5" width="10" height="10" rx="1.5" fill="#ece7dc" stroke="#6f6a60" stroke-width="0.9"/><circle cy="-2" r="1.6" fill="#6f6a60"/><path d="M-2.6 3.6 Q0 -1.2 2.6 3.6 Z" fill="#6f6a60"/></g>
<text x="462" y="232" font-family="'DejaVu Sans', Verdana, Arial, sans-serif" font-size="10" font-weight="bold" text-anchor="middle" dominant-baseline="central" fill="#2b2b2b" stroke="#ffffff" stroke-width="2.4" stroke-linejoin="round" paint-order="stroke">29</text>
<g transform="translate(529 256)" opacity="0.85"><path d="M-8 -2 Q-6 -4 -4 -2 T0 -2 T4 -2 T8 -2 M-8 3 Q-6 1 -4 3 T0 3 T4 3 T8 3" stroke="#4f95c9" stroke-width="1.6" stroke-linecap="round" stroke-linejoin="round" fill="none"/></g>
<text x="581" y="206" font-family="'DejaVu Sans', Verdana, Arial, sans-serif" font-size="10" font-weight="bold" text-anchor="middle" dominant-baseline="central" fill="#2b2b2b" stroke="#ffffff" stroke-width="2.4" stroke-linejoin="round" paint-order="stroke">30</text>
<rect x="7" y="122" width="30" height="16" rx="6" fill="#e9e4f0" fill-opacity="0.92" stroke="#6d6585" stroke-width="1"/>
<text x="22" y="130.5" font-family="'DejaVu Sans', Verdana, Arial, sans-serif" font-size="10" font-weight="bold" text-anchor="middle" dominant-baseline="central" fill="#4d4566">1</text>
<rect x="7" y="144" width="30" height="16" rx="6" fill="#e9e4f0" fill-opacity="0.92" stroke="#6d6585" stroke-width="1"/>
<text x="22" y="152.5" font-family="'DejaVu Sans', Verdana, Arial, sans-serif" font-size="10" font-weight="bold" text-anchor="middle" dominant-baseline="central" fill="#4d4566">2</text>
<rect x="7" y="167" width="30" height="16" rx="6" fill="#e9e4f0" fill-opacity="0.92" stroke="#6d6585" stroke-width="1"/>
<text x="22" y="175.5" font-family="'DejaVu Sans', Verdana, Arial, sans-serif" font-size="10" font-weight="bold" text-anchor="middle" dominant-baseline="central" fill="#4d4566">3</text>
<rect x="7" y="189" width="30" height="16" rx="6" fill="#e9e4f0" fill-opacity="0.92" stroke="#6d6585" stroke-width="1"/>
<text x="22" y="197.5" font-family="'DejaVu Sans', Verdana, Arial, sans-serif" font-size="10" font-weight="bold" text-anchor="middle" dominant-baseline="central" fill="#4d4566">4</text>
<rect x="7" y="212" width="30" height="16" rx="6" fill="#e9e4f0" fill-opacity="0.92" stroke="#6d6585" stroke-width="1"/>
<text x="22" y="220.5" font-family="'DejaVu Sans', Verdana, Arial, sans-serif" font-size="10" font-weight="bold" text-anchor="middle" dominant-baseline="central" fill="#4d4566">5</text>
<rect x="7" y="235" width="30" height="16" rx="6" fill="#e9e4f0" fill-opacity="0.92" stroke="#6d6585" stroke-width="1"/>
<text x="22" y="243.5" font-family="'DejaVu Sans', Verdana, Arial, sans-serif" font-size="10" font-weight="bold" text-anchor="middle" dominant-baseline="central" fill="#4d4566">6</text>
<rect x="7" y="258" width="30" height="16" rx="6" fill="#e9e4f0" fill-opacity="0.92" stroke="#6d6585" stroke-width="1"/>
<text x="22" y="266.5" font-family="'DejaVu Sans', Verdana, Arial, sans-serif" font-size="10" font-weight="bold" text-anchor="middle" dominant-baseline="central" fill="#4d4566">7</text>
<rect x="7" y="281" width="30" height="16" rx="6" fill="#e9e4f0" fill-opacity="0.92" stroke="#6d6585" stroke-width="1"/>
<text x="22" y="289.5" font-family="'DejaVu Sans', Verdana, Arial, sans-serif" font-size="10" font-weight="bold" text-anchor="middle" dominant-baseline="central" fill="#4d4566">8</text>
<rect x="47" y="281" width="30" height="16" rx="6" fill="#e9e4f0" fill-opacity="0.92" stroke="#6d6585" stroke-width="1"/>
<text x="62" y="289.5" font-family="'DejaVu Sans', Verdana, Arial, sans-serif" font-size="10" font-weight="bold" text-anchor="middle" dominant-baseline="central" fill="#4d4566">9</text>
<rect x="85" y="281" width="30" height="16" rx="6" fill="#e9e4f0" fill-opacity="0.92" stroke="#6d6585" stroke-width="1"/>
<text x="100" y="289.5" font-family="'DejaVu Sans', Verdana, Arial, sans-serif" font-size="10" font-weight="bold" text-anchor="middle" dominant-baseline="central" fill="#4d4566">10</text>
<rect x="0.75" y="0.75" width="595.5" height="295.5" fill="none" stroke="#5a4a3a" stroke-width="1.5"/>
</svg>
