<svg xmlns="http://www.w3.org/2000/svg" width="115" height="115" viewBox="0 0 115 115"><title>Dragon Master badge</title>
<rect x="2" y="2" width="111" height="111" rx="12" fill="#fbf6ea" stroke="#8a5a2b" stroke-width="3"/>
<path d="M2 14 Q2 2 14 2 H101 Q113 2 113 14 V24 H2 Z" fill="#8a5a2b"/>
<text x="57.5" y="13.5" font-family="'DejaVu Sans', Verdana, Arial, sans-serif" font-size="11" font-weight="bold" text-anchor="middle" dominant-baseline="central" fill="#ffffff">DRAGON MASTER</text>
<g transform="translate(57.5 54) scale(1)"><path d="M-22 14 Q-24 -8 -8 -14 L-4 -26 L2 -14 Q14 -14 22 -6 L26 4 Q20 10 8 8 L-2 10 Q-6 18 -22 14 Z" fill="#d84332" stroke="#8e1f15" stroke-width="2" stroke-linejoin="round"/><path d="M-14 -10 L-18 -24 L-8 -14 Z" fill="#8e1f15"/><circle cx="4" cy="-6" r="2.6" fill="#ffd54f"/><path d="M10 4 L24 4" stroke="#8e1f15" stroke-width="1.6"/><path d="M14 4 L15 8 L17 4 M19 4 L20 7 L22 4" fill="#ffffff"/></g>
<circle cx="23" cy="92" r="17" fill="#e8762c" stroke="#ffffff" stroke-width="2.5"/>
<text x="23" y="93" font-family="'DejaVu Sans', Verdana, Arial, sans-serif" font-size="22" font-weight="bold" text-anchor="middle" dominant-baseline="central" fill="#ffffff">5</text>
<g transform="translate(90 92) scale(1)"><circle r="12" fill="#d32f2f" stroke="#ffffff" stroke-width="1.8"/><rect x="-7.2" y="-2.16" width="14.4" height="4.32" fill="#ffffff"/></g>
</svg>
